<svg width="224" height="188" viewBox="0 0 224 188" fill="none" xmlns="http://www.w3.org/2000/svg">
<g clip-path="url(#clip0_1704_974)">
<path d="M223.989 22.4489C223.989 22.4489 168.357 32.2703 111.995 32.2703C55.6323 32.2703 0 22.4489 0 22.4489V0C0 0 55.6323 11.2245 111.995 11.2245C168.357 11.2245 223.989 0 223.989 0V22.4489Z" fill="black"/>
<path d="M109.195 36.4774H0V58.9252H109.195V36.4774Z" fill="black"/>
<path d="M224 36.4774H114.805V58.9252H224V36.4774Z" fill="black"/>
<path d="M109.195 67.3425H0V89.7903H109.195V67.3425Z" fill="black"/>
<path d="M224 67.3425H114.805V89.7903H224V67.3425Z" fill="black"/>
<path d="M109.195 98.2076H0V120.655H109.195V98.2076Z" fill="black"/>
<path d="M224 98.2076H114.805V120.655H224V98.2076Z" fill="black"/>
<path d="M223.989 129.073H0V151.521H223.989V129.073Z" fill="black"/>
<path d="M223.989 165.553C223.989 165.553 168.357 155.732 111.995 155.732C55.6323 155.732 0 165.553 0 165.553V188.002C0 188.002 55.6323 176.778 111.995 176.778C168.357 176.778 223.989 188.002 223.989 188.002V165.553Z" fill="black"/>
</g>
<defs>
<clipPath id="clip0_1704_974">
<rect width="224" height="188" fill="white"/>
</clipPath>
</defs>
</svg>
